<?xml version="1.0" encoding="utf-8"?>
<!-- Generator: Adobe Illustrator 16.0.0, SVG Export Plug-In . SVG Version: 6.00 Build 0)  -->
<!DOCTYPE svg PUBLIC "-//W3C//DTD SVG 1.1//EN" "http://www.w3.org/Graphics/SVG/1.1/DTD/svg11.dtd">
<svg version="1.1" id="Слой_1" xmlns="http://www.w3.org/2000/svg" xmlns:xlink="http://www.w3.org/1999/xlink" x="0px" y="0px"
	 width="75px" height="105px" viewBox="0 0 75 105" enable-background="new 0 0 75 105" xml:space="preserve">
<title>logo-loveknitting</title>
<desc>Created with Sketch.</desc>
<g id="Page-1">
	<g id="logo-loveknitting">
		<path id="Shape" fill="#E8503C" d="M72.3,48.7C72,50.8,71.4,53,70.7,55.2C63.3,65.1,54.1,73.8,43.5,80.7c-0.8-0.4-1.6-0.9-2.4-1.4
			C53.5,70.9,64.2,60.1,72.5,47.3C72.5,47.9,72.4,48.3,72.3,48.7L72.3,48.7z M47.7,83.1C46.9,82.7,46.1,82.2,45.3,81.8
			c8.9-6,16.9-13.2,23.7-21.5c-1,2.7-2.1,5.3-3.3,7.9C60.3,73.7,54.3,78.7,47.7,83.1L47.7,83.1z M58,83.1c-1,1.801-1.8,3.2-2.3,4
			c-0.5-0.199-1.2-0.5-2-0.899C55.2,85.2,56.6,84.1,58,83.1L58,83.1z M60.2,79.2c-2.601,2.1-5.4,4.1-8.2,6c-0.8-0.4-1.6-0.8-2.5-1.3
			c5-3.301,9.7-7.101,14.1-11.2C62.4,75.1,61.2,77.3,60.2,79.2L60.2,79.2z M31.3,36.5c8.2,4.5,16,10.2,23,17
			c-0.399,0.5-0.8,0.9-1.2,1.4c-8-7.3-17-13.4-26.5-18h0.1C28.2,36.4,29.7,36.3,31.3,36.5L31.3,36.5z M42.8,38.7
			c-0.1,0.9-0.2,1.9-0.3,2.8c-0.2-0.2-0.5-0.3-0.7-0.5l0.5-1.2C42.5,39.5,42.6,39.1,42.8,38.7L42.8,38.7z M45.2,34.7
			c1-1.4,2.2-2.7,3.6-3.8c-0.899,4.6-1.6,9.2-1.899,13.9c-0.9-0.7-1.7-1.4-2.601-2C44.4,40,44.7,37.3,45.2,34.7L45.2,34.7z M54,28.7
			c-1.6,6.5-2.5,13-2.9,19.6c-0.899-0.8-1.699-1.5-2.6-2.2c0.4-5.5,1.1-11,2.3-16.4c0.4-0.2,0.9-0.4,1.3-0.5
			C52.8,29,53.4,28.8,54,28.7L54,28.7z M67.6,32.6L67,35c-1.3,2.5-2.8,4.9-4.3,7.2c0.6-3.9,1.399-7.7,2.3-11.4
			C65.9,31.3,66.8,31.9,67.6,32.6L67.6,32.6z M60.6,28.9c1,0.2,1.9,0.6,2.801,1C62.1,35,61.1,40.2,60.5,45.5c-1,1.5-2.1,2.9-3.2,4.3
			C57.7,42.7,58.9,35.7,60.6,28.9L60.6,28.9z M55.4,52.1C55.4,52.1,55.4,52.2,55.4,52.1c-0.9-0.8-1.801-1.6-2.601-2.4
			c0.3-7.2,1.4-14.3,3.101-21.3c1-0.1,2,0,3,0.1C56.9,36.4,55.7,44.2,55.4,52.1L55.4,52.1z M68.9,35.1c0.1-0.2,0.199-0.5,0.399-0.7
			c0.7,0.9,1.3,1.8,1.8,2.8C62.7,52.6,50.6,66,35.6,76c-0.7-0.5-1.5-1-2.2-1.4C48.1,64.6,60.3,51.2,68.9,35.1L68.9,35.1z M34.6,71.7
			l-2.1,1.5c-1.4-0.8-2.9-1.601-4.4-2.3c-2.6-2-5-4-6.9-6.101C25.8,66.8,30.3,69.1,34.6,71.7L34.6,71.7z M38.1,69.1
			c-0.6,0.5-1.3,1-1.899,1.5c-5.7-3.5-11.6-6.399-17.8-8.8c-0.8-1.1-1.5-2.3-2-3.6C23.9,60.9,31.2,64.6,38.1,69.1L38.1,69.1z
			 M41.2,66.5L39.4,68C32,63,24,59,15.7,56c-0.2-1-0.4-2-0.4-3C24.3,56.2,33.1,60.8,41.2,66.5L41.2,66.5z M44.2,63.9
			c-0.5,0.5-1.101,1-1.601,1.399C34.2,59.3,25,54.5,15.3,51c0.1-0.9,0.2-1.8,0.4-2.7C25.7,52.1,35.4,57.2,44.2,63.9L44.2,63.9z
			 M21.7,39.3c0.8-0.6,1.7-1.2,2.7-1.6c9.9,4.6,19.2,10.7,27.7,18.399c-0.399,0.5-0.8,0.9-1.3,1.4C41.9,49.9,32.1,43.8,21.7,39.3
			L21.7,39.3z M49.6,58.7L48.2,60.1C39.1,52.7,29.1,46.9,18.3,42.7c0.6-0.8,1.2-1.5,1.8-2.1C30.7,45,40.6,51,49.6,58.7L49.6,58.7z
			 M17.3,44.2c10.5,4,20.5,9.7,29.601,17.1c-0.5,0.5-1,1-1.5,1.4c-9-6.8-18.8-12.2-29.3-16.1L17.3,44.2L17.3,44.2z M72.2,39.9
			c0.399,1.3,0.6,2.6,0.7,3.9C64.6,57.5,53.3,69.4,39.6,78.5c-0.8-0.5-1.5-0.9-2.3-1.4C51.5,67.5,63.4,54.7,72,39.3
			C72,39.5,72.1,39.7,72.2,39.9L72.2,39.9z M51.5,27.1c-2.6,0.8-7.2,3.2-10.7,10.8c-7-4.4-12.2-3.9-14.8-3.1
			c-9.6,2.9-15,13.1-12.1,22.7c1,3.2,2.8,6.1,5.3,8.3C24,70.9,31.5,76.4,41.7,82.2c7.6,4.3,13.899,7.2,13.899,7.2L56.4,89.8L57,89
			c0-0.1,3.7-5.9,7.6-13.7C69.9,64.8,73.2,56,74.3,49.2c0.9-3.2,0.8-6.6-0.2-9.9C71.3,29.7,61.1,24.2,51.5,27.1L51.5,27.1z"/>
		<path id="Shape_1_" fill="#E8503C" d="M53.2,96.9c-0.4-2.2-1.4-5.601-2-7.7L49.9,85c-1.101-0.3-2.4-0.6-3.7-0.9l2,6
			c0.7,2.101,2,5.4,2.899,7.4l2.601,5.8c0.899,2,1.3,1.9,0.8-0.3L53.2,96.9L53.2,96.9z M72,95l-3.7-5.2C67,88,64.8,85.2,63.4,83.5
			L61.2,81c-0.7,0.9-1.5,1.7-2.101,2.4l2,2.199c1.5,1.601,4,4.2,5.601,5.7l4.7,4.3C73,97,73.3,96.8,72,95L72,95z M36.7,53.2
			L9.8,22.7c1.2-1.9,1-4.4-0.6-6.2C7.3,14.3,4,14.1,1.8,16c-2.2,1.9-2.4,5.3-0.5,7.4c1.6,1.8,4,2.2,6.1,1.3L28,48.1
			C30.3,49.4,33.6,51.3,36.7,53.2L36.7,53.2z"/>
		<path id="Shape_2_" fill="#E8503C" d="M22.1,10.5l13.7,42.1c1.5,0.9,2.9,1.7,4.2,2.5L25.1,9.6c1.8-1.3,2.7-3.7,1.9-5.9
			c-0.9-2.8-3.9-4.3-6.6-3.4c-2.8,0.9-4.3,3.9-3.4,6.6C17.8,9.1,19.9,10.6,22.1,10.5"/>
	</g>
</g>
</svg>
